<?xml version="1.0" encoding="UTF-8" standalone="no"?>
<!DOCTYPE svg PUBLIC "-//W3C//DTD SVG 1.1//EN"
 "http://www.w3.org/Graphics/SVG/1.1/DTD/svg11.dtd">
<!-- Generated by graphviz version 12.0.0 (20240704.0754)
 -->
<!-- Title: Loss&#45;Graph Pages: 1 -->
<svg width="2402pt" height="442pt"
 viewBox="0.00 0.00 2402.00 442.00" xmlns="http://www.w3.org/2000/svg" xmlns:xlink="http://www.w3.org/1999/xlink">
<g id="graph0" class="graph" transform="scale(1 1) rotate(0) translate(4 438)">
<title>Loss&#45;Graph</title>
<polygon fill="white" stroke="none" points="-4,4 -4,-438 2398,-438 2398,4 -4,4"/>
<!-- 2529514549264 -->
<g id="node1" class="node">
<title>2529514549264</title>
<polygon fill="none" stroke="black" points="636.75,-273.5 636.75,-309.5 823.5,-309.5 823.5,-273.5 636.75,-273.5"/>
<text text-anchor="middle" x="646.62" y="-286.2" font-family="Times New Roman,serif" font-size="14.00"> </text>
<polyline fill="none" stroke="black" points="656.5,-273.75 656.5,-309.5"/>
<text text-anchor="middle" x="699" y="-286.2" font-family="Times New Roman,serif" font-size="14.00">data &#45;0.6614</text>
<polyline fill="none" stroke="black" points="741.5,-273.75 741.5,-309.5"/>
<text text-anchor="middle" x="782.5" y="-286.2" font-family="Times New Roman,serif" font-size="14.00">grad 0.6771</text>
</g>
<!-- 2529514549312+ -->
<g id="node3" class="node">
<title>2529514549312+</title>
<ellipse fill="none" stroke="black" cx="888.75" cy="-252.5" rx="27" ry="18"/>
<text text-anchor="middle" x="888.75" y="-247.07" font-family="Times New Roman,serif" font-size="14.00">+</text>
</g>
<!-- 2529514549264&#45;&gt;2529514549312+ -->
<g id="edge41" class="edge">
<title>2529514549264&#45;&gt;2529514549312+</title>
<path fill="none" stroke="black" d="M805.31,-273.03C821.62,-268.97 838.16,-264.85 852.11,-261.37"/>
<polygon fill="black" stroke="black" points="852.83,-264.8 861.68,-258.99 851.14,-258.01 852.83,-264.8"/>
</g>
<!-- 2529514549312 -->
<g id="node2" class="node">
<title>2529514549312</title>
<polygon fill="none" stroke="black" points="956.25,-234.5 956.25,-270.5 1138.5,-270.5 1138.5,-234.5 956.25,-234.5"/>
<text text-anchor="middle" x="966.12" y="-247.2" font-family="Times New Roman,serif" font-size="14.00"> </text>
<polyline fill="none" stroke="black" points="976,-234.75 976,-270.5"/>
<text text-anchor="middle" x="1016.25" y="-247.2" font-family="Times New Roman,serif" font-size="14.00">data 0.3386</text>
<polyline fill="none" stroke="black" points="1056.5,-234.75 1056.5,-270.5"/>
<text text-anchor="middle" x="1097.5" y="-247.2" font-family="Times New Roman,serif" font-size="14.00">grad 0.6771</text>
</g>
<!-- 2529514549504**2 -->
<g id="node7" class="node">
<title>2529514549504**2</title>
<ellipse fill="none" stroke="black" cx="1206" cy="-252.5" rx="27" ry="18"/>
<text text-anchor="middle" x="1206" y="-247.07" font-family="Times New Roman,serif" font-size="14.00">**2</text>
</g>
<!-- 2529514549312&#45;&gt;2529514549504**2 -->
<g id="edge30" class="edge">
<title>2529514549312&#45;&gt;2529514549504**2</title>
<path fill="none" stroke="black" d="M1138.58,-252.5C1148.68,-252.5 1158.5,-252.5 1167.37,-252.5"/>
<polygon fill="black" stroke="black" points="1167.28,-256 1177.28,-252.5 1167.28,-249 1167.28,-256"/>
</g>
<!-- 2529514549312+&#45;&gt;2529514549312 -->
<g id="edge1" class="edge">
<title>2529514549312+&#45;&gt;2529514549312</title>
<path fill="none" stroke="black" d="M915.97,-252.5C924.28,-252.5 934.03,-252.5 944.38,-252.5"/>
<polygon fill="black" stroke="black" points="944.31,-256 954.31,-252.5 944.31,-249 944.31,-256"/>
</g>
<!-- 2529514551424 -->
<g id="node4" class="node">
<title>2529514551424</title>
<polygon fill="none" stroke="black" points="2211.75,-110.5 2211.75,-146.5 2394,-146.5 2394,-110.5 2211.75,-110.5"/>
<text text-anchor="middle" x="2221.62" y="-123.2" font-family="Times New Roman,serif" font-size="14.00"> </text>
<polyline fill="none" stroke="black" points="2231.5,-110.75 2231.5,-146.5"/>
<text text-anchor="middle" x="2271.75" y="-123.2" font-family="Times New Roman,serif" font-size="14.00">data 3.9070</text>
<polyline fill="none" stroke="black" points="2312,-110.75 2312,-146.5"/>
<text text-anchor="middle" x="2353" y="-123.2" font-family="Times New Roman,serif" font-size="14.00">grad 1.0000</text>
</g>
<!-- 2529514551424+ -->
<g id="node5" class="node">
<title>2529514551424+</title>
<ellipse fill="none" stroke="black" cx="2148.75" cy="-128.5" rx="27" ry="18"/>
<text text-anchor="middle" x="2148.75" y="-123.08" font-family="Times New Roman,serif" font-size="14.00">+</text>
</g>
<!-- 2529514551424+&#45;&gt;2529514551424 -->
<g id="edge2" class="edge">
<title>2529514551424+&#45;&gt;2529514551424</title>
<path fill="none" stroke="black" d="M2176.25,-128.5C2183.29,-128.5 2191.34,-128.5 2199.88,-128.5"/>
<polygon fill="black" stroke="black" points="2199.84,-132 2209.84,-128.5 2199.84,-125 2199.84,-132"/>
</g>
<!-- 2529514549504 -->
<g id="node6" class="node">
<title>2529514549504</title>
<polygon fill="none" stroke="black" points="1273.5,-234.5 1273.5,-270.5 1455.75,-270.5 1455.75,-234.5 1273.5,-234.5"/>
<text text-anchor="middle" x="1283.38" y="-247.2" font-family="Times New Roman,serif" font-size="14.00"> </text>
<polyline fill="none" stroke="black" points="1293.25,-234.75 1293.25,-270.5"/>
<text text-anchor="middle" x="1333.5" y="-247.2" font-family="Times New Roman,serif" font-size="14.00">data 0.1146</text>
<polyline fill="none" stroke="black" points="1373.75,-234.75 1373.75,-270.5"/>
<text text-anchor="middle" x="1414.75" y="-247.2" font-family="Times New Roman,serif" font-size="14.00">grad 1.0000</text>
</g>
<!-- 2529514549696+ -->
<g id="node10" class="node">
<title>2529514549696+</title>
<ellipse fill="none" stroke="black" cx="1523.25" cy="-252.5" rx="27" ry="18"/>
<text text-anchor="middle" x="1523.25" y="-247.07" font-family="Times New Roman,serif" font-size="14.00">+</text>
</g>
<!-- 2529514549504&#45;&gt;2529514549696+ -->
<g id="edge21" class="edge">
<title>2529514549504&#45;&gt;2529514549696+</title>
<path fill="none" stroke="black" d="M1455.83,-252.5C1465.93,-252.5 1475.75,-252.5 1484.62,-252.5"/>
<polygon fill="black" stroke="black" points="1484.53,-256 1494.53,-252.5 1484.53,-249 1484.53,-256"/>
</g>
<!-- 2529514549504**2&#45;&gt;2529514549504 -->
<g id="edge3" class="edge">
<title>2529514549504**2&#45;&gt;2529514549504</title>
<path fill="none" stroke="black" d="M1233.22,-252.5C1241.53,-252.5 1251.28,-252.5 1261.63,-252.5"/>
<polygon fill="black" stroke="black" points="1261.56,-256 1271.56,-252.5 1261.56,-249 1261.56,-256"/>
</g>
<!-- 2529514277280 -->
<g id="node8" class="node">
<title>2529514277280</title>
<polygon fill="none" stroke="black" points="956.25,-55.5 956.25,-91.5 1138.5,-91.5 1138.5,-55.5 956.25,-55.5"/>
<text text-anchor="middle" x="966.12" y="-68.2" font-family="Times New Roman,serif" font-size="14.00"> </text>
<polyline fill="none" stroke="black" points="976,-55.75 976,-91.5"/>
<text text-anchor="middle" x="1016.25" y="-68.2" font-family="Times New Roman,serif" font-size="14.00">data 1.0000</text>
<polyline fill="none" stroke="black" points="1056.5,-55.75 1056.5,-91.5"/>
<text text-anchor="middle" x="1097.5" y="-68.2" font-family="Times New Roman,serif" font-size="14.00">grad 1.9916</text>
</g>
<!-- 2529514550800* -->
<g id="node32" class="node">
<title>2529514550800*</title>
<ellipse fill="none" stroke="black" cx="1206" cy="-73.5" rx="27" ry="18"/>
<text text-anchor="middle" x="1206" y="-68.08" font-family="Times New Roman,serif" font-size="14.00">*</text>
</g>
<!-- 2529514277280&#45;&gt;2529514550800* -->
<g id="edge37" class="edge">
<title>2529514277280&#45;&gt;2529514550800*</title>
<path fill="none" stroke="black" d="M1138.58,-73.5C1148.68,-73.5 1158.5,-73.5 1167.37,-73.5"/>
<polygon fill="black" stroke="black" points="1167.28,-77 1177.28,-73.5 1167.28,-70 1167.28,-77"/>
</g>
<!-- 2529514549696 -->
<g id="node9" class="node">
<title>2529514549696</title>
<polygon fill="none" stroke="black" points="1590.75,-214.5 1590.75,-250.5 1773,-250.5 1773,-214.5 1590.75,-214.5"/>
<text text-anchor="middle" x="1600.62" y="-227.2" font-family="Times New Roman,serif" font-size="14.00"> </text>
<polyline fill="none" stroke="black" points="1610.5,-214.75 1610.5,-250.5"/>
<text text-anchor="middle" x="1650.75" y="-227.2" font-family="Times New Roman,serif" font-size="14.00">data 1.9154</text>
<polyline fill="none" stroke="black" points="1691,-214.75 1691,-250.5"/>
<text text-anchor="middle" x="1732" y="-227.2" font-family="Times New Roman,serif" font-size="14.00">grad 1.0000</text>
</g>
<!-- 2529514550560+ -->
<g id="node26" class="node">
<title>2529514550560+</title>
<ellipse fill="none" stroke="black" cx="1840.5" cy="-156.5" rx="27" ry="18"/>
<text text-anchor="middle" x="1840.5" y="-151.07" font-family="Times New Roman,serif" font-size="14.00">+</text>
</g>
<!-- 2529514549696&#45;&gt;2529514550560+ -->
<g id="edge43" class="edge">
<title>2529514549696&#45;&gt;2529514550560+</title>
<path fill="none" stroke="black" d="M1720.79,-214.1C1747.57,-201.11 1783.02,-183.91 1808.19,-171.69"/>
<polygon fill="black" stroke="black" points="1809.46,-174.97 1816.93,-167.45 1806.4,-168.67 1809.46,-174.97"/>
</g>
<!-- 2529514549696+&#45;&gt;2529514549696 -->
<g id="edge4" class="edge">
<title>2529514549696+&#45;&gt;2529514549696</title>
<path fill="none" stroke="black" d="M1550.11,-249.2C1558.56,-248.12 1568.52,-246.85 1579.1,-245.5"/>
<polygon fill="black" stroke="black" points="1579.34,-248.99 1588.82,-244.25 1578.46,-242.05 1579.34,-248.99"/>
</g>
<!-- 2529514549888 -->
<g id="node11" class="node">
<title>2529514549888</title>
<polygon fill="none" stroke="black" points="634.5,-163.5 634.5,-199.5 825.75,-199.5 825.75,-163.5 634.5,-163.5"/>
<text text-anchor="middle" x="644.38" y="-176.2" font-family="Times New Roman,serif" font-size="14.00"> </text>
<polyline fill="none" stroke="black" points="654.25,-163.75 654.25,-199.5"/>
<text text-anchor="middle" x="696.75" y="-176.2" font-family="Times New Roman,serif" font-size="14.00">data &#45;1.0000</text>
<polyline fill="none" stroke="black" points="739.25,-163.75 739.25,-199.5"/>
<text text-anchor="middle" x="782.5" y="-176.2" font-family="Times New Roman,serif" font-size="14.00">grad &#45;2.0000</text>
</g>
<!-- 2529514549936* -->
<g id="node13" class="node">
<title>2529514549936*</title>
<ellipse fill="none" stroke="black" cx="888.75" cy="-181.5" rx="27" ry="18"/>
<text text-anchor="middle" x="888.75" y="-176.07" font-family="Times New Roman,serif" font-size="14.00">*</text>
</g>
<!-- 2529514549888&#45;&gt;2529514549936* -->
<g id="edge23" class="edge">
<title>2529514549888&#45;&gt;2529514549936*</title>
<path fill="none" stroke="black" d="M825.85,-181.5C834.39,-181.5 842.66,-181.5 850.22,-181.5"/>
<polygon fill="black" stroke="black" points="849.95,-185 859.95,-181.5 849.95,-178 849.95,-185"/>
</g>
<!-- 2529514549936 -->
<g id="node12" class="node">
<title>2529514549936</title>
<polygon fill="none" stroke="black" points="956.25,-165.5 956.25,-201.5 1138.5,-201.5 1138.5,-165.5 956.25,-165.5"/>
<text text-anchor="middle" x="966.12" y="-178.2" font-family="Times New Roman,serif" font-size="14.00"> </text>
<polyline fill="none" stroke="black" points="976,-165.75 976,-201.5"/>
<text text-anchor="middle" x="1016.25" y="-178.2" font-family="Times New Roman,serif" font-size="14.00">data 1.0000</text>
<polyline fill="none" stroke="black" points="1056.5,-165.75 1056.5,-201.5"/>
<text text-anchor="middle" x="1097.5" y="-178.2" font-family="Times New Roman,serif" font-size="14.00">grad 2.0000</text>
</g>
<!-- 2529514550176+ -->
<g id="node17" class="node">
<title>2529514550176+</title>
<ellipse fill="none" stroke="black" cx="1206" cy="-156.5" rx="27" ry="18"/>
<text text-anchor="middle" x="1206" y="-151.07" font-family="Times New Roman,serif" font-size="14.00">+</text>
</g>
<!-- 2529514549936&#45;&gt;2529514550176+ -->
<g id="edge19" class="edge">
<title>2529514549936&#45;&gt;2529514550176+</title>
<path fill="none" stroke="black" d="M1138.58,-167.95C1148.98,-166.16 1159.09,-164.41 1168.17,-162.85"/>
<polygon fill="black" stroke="black" points="1168.68,-166.31 1177.94,-161.17 1167.49,-159.42 1168.68,-166.31"/>
</g>
<!-- 2529514549936*&#45;&gt;2529514549936 -->
<g id="edge5" class="edge">
<title>2529514549936*&#45;&gt;2529514549936</title>
<path fill="none" stroke="black" d="M915.97,-181.83C924.28,-181.94 934.03,-182.07 944.38,-182.2"/>
<polygon fill="black" stroke="black" points="944.27,-185.7 954.31,-182.32 944.36,-178.7 944.27,-185.7"/>
</g>
<!-- 2529514021616 -->
<g id="node14" class="node">
<title>2529514021616</title>
<polygon fill="none" stroke="black" points="317.25,-232.5 317.25,-268.5 508.5,-268.5 508.5,-232.5 317.25,-232.5"/>
<text text-anchor="middle" x="327.12" y="-245.2" font-family="Times New Roman,serif" font-size="14.00"> </text>
<polyline fill="none" stroke="black" points="337,-232.75 337,-268.5"/>
<text text-anchor="middle" x="379.5" y="-245.2" font-family="Times New Roman,serif" font-size="14.00">data &#45;1.0000</text>
<polyline fill="none" stroke="black" points="422,-232.75 422,-268.5"/>
<text text-anchor="middle" x="465.25" y="-245.2" font-family="Times New Roman,serif" font-size="14.00">grad &#45;0.6771</text>
</g>
<!-- 2529514549072* -->
<g id="node41" class="node">
<title>2529514549072*</title>
<ellipse fill="none" stroke="black" cx="571.5" cy="-236.5" rx="27" ry="18"/>
<text text-anchor="middle" x="571.5" y="-231.07" font-family="Times New Roman,serif" font-size="14.00">*</text>
</g>
<!-- 2529514021616&#45;&gt;2529514549072* -->
<g id="edge29" class="edge">
<title>2529514021616&#45;&gt;2529514549072*</title>
<path fill="none" stroke="black" d="M508.6,-242.03C517.22,-241.26 525.57,-240.52 533.19,-239.83"/>
<polygon fill="black" stroke="black" points="533.36,-243.33 543.01,-238.96 532.74,-236.36 533.36,-243.33"/>
</g>
<!-- 2529514550128 -->
<g id="node15" class="node">
<title>2529514550128</title>
<polygon fill="none" stroke="black" points="956.25,-110.5 956.25,-146.5 1138.5,-146.5 1138.5,-110.5 956.25,-110.5"/>
<text text-anchor="middle" x="966.12" y="-123.2" font-family="Times New Roman,serif" font-size="14.00"> </text>
<polyline fill="none" stroke="black" points="976,-110.75 976,-146.5"/>
<text text-anchor="middle" x="1016.25" y="-123.2" font-family="Times New Roman,serif" font-size="14.00">data 0.0000</text>
<polyline fill="none" stroke="black" points="1056.5,-110.75 1056.5,-146.5"/>
<text text-anchor="middle" x="1097.5" y="-123.2" font-family="Times New Roman,serif" font-size="14.00">grad 2.0000</text>
</g>
<!-- 2529514550128&#45;&gt;2529514550176+ -->
<g id="edge31" class="edge">
<title>2529514550128&#45;&gt;2529514550176+</title>
<path fill="none" stroke="black" d="M1138.58,-144.63C1148.98,-146.49 1159.09,-148.29 1168.17,-149.92"/>
<polygon fill="black" stroke="black" points="1167.48,-153.35 1177.94,-151.66 1168.71,-146.46 1167.48,-153.35"/>
</g>
<!-- 2529514550176 -->
<g id="node16" class="node">
<title>2529514550176</title>
<polygon fill="none" stroke="black" points="1273.5,-138.5 1273.5,-174.5 1455.75,-174.5 1455.75,-138.5 1273.5,-138.5"/>
<text text-anchor="middle" x="1283.38" y="-151.2" font-family="Times New Roman,serif" font-size="14.00"> </text>
<polyline fill="none" stroke="black" points="1293.25,-138.75 1293.25,-174.5"/>
<text text-anchor="middle" x="1333.5" y="-151.2" font-family="Times New Roman,serif" font-size="14.00">data 1.0000</text>
<polyline fill="none" stroke="black" points="1373.75,-138.75 1373.75,-174.5"/>
<text text-anchor="middle" x="1414.75" y="-151.2" font-family="Times New Roman,serif" font-size="14.00">grad 2.0000</text>
</g>
<!-- 2529514550368**2 -->
<g id="node21" class="node">
<title>2529514550368**2</title>
<ellipse fill="none" stroke="black" cx="1523.25" cy="-156.5" rx="27" ry="18"/>
<text text-anchor="middle" x="1523.25" y="-151.07" font-family="Times New Roman,serif" font-size="14.00">**2</text>
</g>
<!-- 2529514550176&#45;&gt;2529514550368**2 -->
<g id="edge26" class="edge">
<title>2529514550176&#45;&gt;2529514550368**2</title>
<path fill="none" stroke="black" d="M1455.83,-156.5C1465.93,-156.5 1475.75,-156.5 1484.62,-156.5"/>
<polygon fill="black" stroke="black" points="1484.53,-160 1494.53,-156.5 1484.53,-153 1484.53,-160"/>
</g>
<!-- 2529514550176+&#45;&gt;2529514550176 -->
<g id="edge6" class="edge">
<title>2529514550176+&#45;&gt;2529514550176</title>
<path fill="none" stroke="black" d="M1233.22,-156.5C1241.53,-156.5 1251.28,-156.5 1261.63,-156.5"/>
<polygon fill="black" stroke="black" points="1261.56,-160 1271.56,-156.5 1261.56,-153 1261.56,-160"/>
</g>
<!-- 2529514548160 -->
<g id="node18" class="node">
<title>2529514548160</title>
<polygon fill="none" stroke="black" points="317.25,-369.5 317.25,-405.5 508.5,-405.5 508.5,-369.5 317.25,-369.5"/>
<text text-anchor="middle" x="327.12" y="-382.2" font-family="Times New Roman,serif" font-size="14.00"> </text>
<polyline fill="none" stroke="black" points="337,-369.75 337,-405.5"/>
<text text-anchor="middle" x="379.5" y="-382.2" font-family="Times New Roman,serif" font-size="14.00">data &#45;1.0000</text>
<polyline fill="none" stroke="black" points="422,-369.75 422,-405.5"/>
<text text-anchor="middle" x="465.25" y="-382.2" font-family="Times New Roman,serif" font-size="14.00">grad &#45;2.6839</text>
</g>
<!-- 2529514548400+ -->
<g id="node24" class="node">
<title>2529514548400+</title>
<ellipse fill="none" stroke="black" cx="571.5" cy="-346.5" rx="27" ry="18"/>
<text text-anchor="middle" x="571.5" y="-341.07" font-family="Times New Roman,serif" font-size="14.00">+</text>
</g>
<!-- 2529514548160&#45;&gt;2529514548400+ -->
<g id="edge36" class="edge">
<title>2529514548160&#45;&gt;2529514548400+</title>
<path fill="none" stroke="black" d="M484.4,-369.04C502,-364.43 520.13,-359.69 535.18,-355.74"/>
<polygon fill="black" stroke="black" points="535.79,-359.21 544.57,-353.29 534.01,-352.43 535.79,-359.21"/>
</g>
<!-- 2529514548160* -->
<g id="node19" class="node">
<title>2529514548160*</title>
<ellipse fill="none" stroke="black" cx="254.25" cy="-387.5" rx="27" ry="18"/>
<text text-anchor="middle" x="254.25" y="-382.07" font-family="Times New Roman,serif" font-size="14.00">*</text>
</g>
<!-- 2529514548160*&#45;&gt;2529514548160 -->
<g id="edge7" class="edge">
<title>2529514548160*&#45;&gt;2529514548160</title>
<path fill="none" stroke="black" d="M281.47,-387.5C288.63,-387.5 296.86,-387.5 305.62,-387.5"/>
<polygon fill="black" stroke="black" points="305.46,-391 315.46,-387.5 305.46,-384 305.46,-391"/>
</g>
<!-- 2529514550368 -->
<g id="node20" class="node">
<title>2529514550368</title>
<polygon fill="none" stroke="black" points="1590.75,-138.5 1590.75,-174.5 1773,-174.5 1773,-138.5 1590.75,-138.5"/>
<text text-anchor="middle" x="1600.62" y="-151.2" font-family="Times New Roman,serif" font-size="14.00"> </text>
<polyline fill="none" stroke="black" points="1610.5,-138.75 1610.5,-174.5"/>
<text text-anchor="middle" x="1650.75" y="-151.2" font-family="Times New Roman,serif" font-size="14.00">data 1.0000</text>
<polyline fill="none" stroke="black" points="1691,-138.75 1691,-174.5"/>
<text text-anchor="middle" x="1732" y="-151.2" font-family="Times New Roman,serif" font-size="14.00">grad 1.0000</text>
</g>
<!-- 2529514550368&#45;&gt;2529514550560+ -->
<g id="edge42" class="edge">
<title>2529514550368&#45;&gt;2529514550560+</title>
<path fill="none" stroke="black" d="M1773.08,-156.5C1783.18,-156.5 1793,-156.5 1801.87,-156.5"/>
<polygon fill="black" stroke="black" points="1801.78,-160 1811.78,-156.5 1801.78,-153 1801.78,-160"/>
</g>
<!-- 2529514550368**2&#45;&gt;2529514550368 -->
<g id="edge8" class="edge">
<title>2529514550368**2&#45;&gt;2529514550368</title>
<path fill="none" stroke="black" d="M1550.47,-156.5C1558.78,-156.5 1568.53,-156.5 1578.88,-156.5"/>
<polygon fill="black" stroke="black" points="1578.81,-160 1588.81,-156.5 1578.81,-153 1578.81,-160"/>
</g>
<!-- 2529514548352 -->
<g id="node22" class="node">
<title>2529514548352</title>
<polygon fill="none" stroke="black" points="317.25,-314.5 317.25,-350.5 508.5,-350.5 508.5,-314.5 317.25,-314.5"/>
<text text-anchor="middle" x="327.12" y="-327.2" font-family="Times New Roman,serif" font-size="14.00"> </text>
<polyline fill="none" stroke="black" points="337,-314.75 337,-350.5"/>
<text text-anchor="middle" x="379.5" y="-327.2" font-family="Times New Roman,serif" font-size="14.00">data &#45;0.3419</text>
<polyline fill="none" stroke="black" points="422,-314.75 422,-350.5"/>
<text text-anchor="middle" x="465.25" y="-327.2" font-family="Times New Roman,serif" font-size="14.00">grad &#45;2.6839</text>
</g>
<!-- 2529514548352&#45;&gt;2529514548400+ -->
<g id="edge24" class="edge">
<title>2529514548352&#45;&gt;2529514548400+</title>
<path fill="none" stroke="black" d="M508.6,-340.97C517.22,-341.74 525.57,-342.48 533.19,-343.17"/>
<polygon fill="black" stroke="black" points="532.74,-346.64 543.01,-344.04 533.36,-339.67 532.74,-346.64"/>
</g>
<!-- 2529514548400 -->
<g id="node23" class="node">
<title>2529514548400</title>
<polygon fill="none" stroke="black" points="634.5,-328.5 634.5,-364.5 825.75,-364.5 825.75,-328.5 634.5,-328.5"/>
<text text-anchor="middle" x="644.38" y="-341.2" font-family="Times New Roman,serif" font-size="14.00"> </text>
<polyline fill="none" stroke="black" points="654.25,-328.75 654.25,-364.5"/>
<text text-anchor="middle" x="696.75" y="-341.2" font-family="Times New Roman,serif" font-size="14.00">data &#45;1.3419</text>
<polyline fill="none" stroke="black" points="739.25,-328.75 739.25,-364.5"/>
<text text-anchor="middle" x="782.5" y="-341.2" font-family="Times New Roman,serif" font-size="14.00">grad &#45;2.6839</text>
</g>
<!-- 2529514548592**2 -->
<g id="node28" class="node">
<title>2529514548592**2</title>
<ellipse fill="none" stroke="black" cx="888.75" cy="-344.5" rx="27" ry="18"/>
<text text-anchor="middle" x="888.75" y="-339.07" font-family="Times New Roman,serif" font-size="14.00">**2</text>
</g>
<!-- 2529514548400&#45;&gt;2529514548592**2 -->
<g id="edge18" class="edge">
<title>2529514548400&#45;&gt;2529514548592**2</title>
<path fill="none" stroke="black" d="M825.85,-345.29C834.39,-345.18 842.66,-345.08 850.22,-344.98"/>
<polygon fill="black" stroke="black" points="849.99,-348.48 859.95,-344.86 849.91,-341.48 849.99,-348.48"/>
</g>
<!-- 2529514548400+&#45;&gt;2529514548400 -->
<g id="edge9" class="edge">
<title>2529514548400+&#45;&gt;2529514548400</title>
<path fill="none" stroke="black" d="M598.72,-346.5C605.88,-346.5 614.11,-346.5 622.87,-346.5"/>
<polygon fill="black" stroke="black" points="622.71,-350 632.71,-346.5 622.71,-343 622.71,-350"/>
</g>
<!-- 2529514550560 -->
<g id="node25" class="node">
<title>2529514550560</title>
<polygon fill="none" stroke="black" points="1903.5,-138.5 1903.5,-174.5 2085.75,-174.5 2085.75,-138.5 1903.5,-138.5"/>
<text text-anchor="middle" x="1913.38" y="-151.2" font-family="Times New Roman,serif" font-size="14.00"> </text>
<polyline fill="none" stroke="black" points="1923.25,-138.75 1923.25,-174.5"/>
<text text-anchor="middle" x="1963.5" y="-151.2" font-family="Times New Roman,serif" font-size="14.00">data 2.9154</text>
<polyline fill="none" stroke="black" points="2003.75,-138.75 2003.75,-174.5"/>
<text text-anchor="middle" x="2044.75" y="-151.2" font-family="Times New Roman,serif" font-size="14.00">grad 1.0000</text>
</g>
<!-- 2529514550560&#45;&gt;2529514551424+ -->
<g id="edge35" class="edge">
<title>2529514550560&#45;&gt;2529514551424+</title>
<path fill="none" stroke="black" d="M2085.87,-139.89C2094.71,-138.26 2103.28,-136.68 2111.09,-135.25"/>
<polygon fill="black" stroke="black" points="2111.6,-138.71 2120.8,-133.46 2110.33,-131.83 2111.6,-138.71"/>
</g>
<!-- 2529514550560+&#45;&gt;2529514550560 -->
<g id="edge10" class="edge">
<title>2529514550560+&#45;&gt;2529514550560</title>
<path fill="none" stroke="black" d="M1868,-156.5C1875.04,-156.5 1883.09,-156.5 1891.63,-156.5"/>
<polygon fill="black" stroke="black" points="1891.59,-160 1901.59,-156.5 1891.59,-153 1891.59,-160"/>
</g>
<!-- 2529514548592 -->
<g id="node27" class="node">
<title>2529514548592</title>
<polygon fill="none" stroke="black" points="956.25,-299.5 956.25,-335.5 1138.5,-335.5 1138.5,-299.5 956.25,-299.5"/>
<text text-anchor="middle" x="966.12" y="-312.2" font-family="Times New Roman,serif" font-size="14.00"> </text>
<polyline fill="none" stroke="black" points="976,-299.75 976,-335.5"/>
<text text-anchor="middle" x="1016.25" y="-312.2" font-family="Times New Roman,serif" font-size="14.00">data 1.8008</text>
<polyline fill="none" stroke="black" points="1056.5,-299.75 1056.5,-335.5"/>
<text text-anchor="middle" x="1097.5" y="-312.2" font-family="Times New Roman,serif" font-size="14.00">grad 1.0000</text>
</g>
<!-- 2529514548832+ -->
<g id="node35" class="node">
<title>2529514548832+</title>
<ellipse fill="none" stroke="black" cx="1206" cy="-317.5" rx="27" ry="18"/>
<text text-anchor="middle" x="1206" y="-312.07" font-family="Times New Roman,serif" font-size="14.00">+</text>
</g>
<!-- 2529514548592&#45;&gt;2529514548832+ -->
<g id="edge38" class="edge">
<title>2529514548592&#45;&gt;2529514548832+</title>
<path fill="none" stroke="black" d="M1138.58,-317.5C1148.68,-317.5 1158.5,-317.5 1167.37,-317.5"/>
<polygon fill="black" stroke="black" points="1167.28,-321 1177.28,-317.5 1167.28,-314 1167.28,-321"/>
</g>
<!-- 2529514548592**2&#45;&gt;2529514548592 -->
<g id="edge11" class="edge">
<title>2529514548592**2&#45;&gt;2529514548592</title>
<path fill="none" stroke="black" d="M915.26,-340.1C923.76,-338.64 933.8,-336.91 944.49,-335.06"/>
<polygon fill="black" stroke="black" points="945.07,-338.52 954.33,-333.37 943.88,-331.62 945.07,-338.52"/>
</g>
<!-- 2529514546576 -->
<g id="node29" class="node">
<title>2529514546576</title>
<polygon fill="none" stroke="black" points="0,-397.5 0,-433.5 191.25,-433.5 191.25,-397.5 0,-397.5"/>
<text text-anchor="middle" x="9.88" y="-410.2" font-family="Times New Roman,serif" font-size="14.00"> </text>
<polyline fill="none" stroke="black" points="19.75,-397.75 19.75,-433.5"/>
<text text-anchor="middle" x="62.25" y="-410.2" font-family="Times New Roman,serif" font-size="14.00">data &#45;1.0000</text>
<polyline fill="none" stroke="black" points="104.75,-397.75 104.75,-433.5"/>
<text text-anchor="middle" x="148" y="-410.2" font-family="Times New Roman,serif" font-size="14.00">grad &#45;2.6839</text>
</g>
<!-- 2529514546576&#45;&gt;2529514548160* -->
<g id="edge39" class="edge">
<title>2529514546576&#45;&gt;2529514548160*</title>
<path fill="none" stroke="black" d="M191.35,-398.57C200.25,-396.98 208.85,-395.44 216.67,-394.04"/>
<polygon fill="black" stroke="black" points="217.15,-397.51 226.38,-392.3 215.92,-390.62 217.15,-397.51"/>
</g>
<!-- 2529514550752 -->
<g id="node30" class="node">
<title>2529514550752</title>
<polygon fill="none" stroke="black" points="951.75,-0.5 951.75,-36.5 1143,-36.5 1143,-0.5 951.75,-0.5"/>
<text text-anchor="middle" x="961.62" y="-13.2" font-family="Times New Roman,serif" font-size="14.00"> </text>
<polyline fill="none" stroke="black" points="971.5,-0.75 971.5,-36.5"/>
<text text-anchor="middle" x="1014" y="-13.2" font-family="Times New Roman,serif" font-size="14.00">data &#45;1.0000</text>
<polyline fill="none" stroke="black" points="1056.5,-0.75 1056.5,-36.5"/>
<text text-anchor="middle" x="1099.75" y="-13.2" font-family="Times New Roman,serif" font-size="14.00">grad &#45;1.9916</text>
</g>
<!-- 2529514550752&#45;&gt;2529514550800* -->
<g id="edge17" class="edge">
<title>2529514550752&#45;&gt;2529514550800*</title>
<path fill="none" stroke="black" d="M1114.64,-36.98C1124.21,-39.97 1133.9,-43.19 1143,-46.5 1152.86,-50.09 1163.39,-54.46 1172.92,-58.64"/>
<polygon fill="black" stroke="black" points="1171.23,-61.71 1181.79,-62.59 1174.08,-55.32 1171.23,-61.71"/>
</g>
<!-- 2529514550800 -->
<g id="node31" class="node">
<title>2529514550800</title>
<polygon fill="none" stroke="black" points="1269,-62.5 1269,-98.5 1460.25,-98.5 1460.25,-62.5 1269,-62.5"/>
<text text-anchor="middle" x="1278.88" y="-75.2" font-family="Times New Roman,serif" font-size="14.00"> </text>
<polyline fill="none" stroke="black" points="1288.75,-62.75 1288.75,-98.5"/>
<text text-anchor="middle" x="1331.25" y="-75.2" font-family="Times New Roman,serif" font-size="14.00">data &#45;1.0000</text>
<polyline fill="none" stroke="black" points="1373.75,-62.75 1373.75,-98.5"/>
<text text-anchor="middle" x="1417" y="-75.2" font-family="Times New Roman,serif" font-size="14.00">grad &#45;1.9916</text>
</g>
<!-- 2529514551040+ -->
<g id="node38" class="node">
<title>2529514551040+</title>
<ellipse fill="none" stroke="black" cx="1523.25" cy="-80.5" rx="27" ry="18"/>
<text text-anchor="middle" x="1523.25" y="-75.08" font-family="Times New Roman,serif" font-size="14.00">+</text>
</g>
<!-- 2529514550800&#45;&gt;2529514551040+ -->
<g id="edge40" class="edge">
<title>2529514550800&#45;&gt;2529514551040+</title>
<path fill="none" stroke="black" d="M1460.35,-80.5C1468.89,-80.5 1477.16,-80.5 1484.72,-80.5"/>
<polygon fill="black" stroke="black" points="1484.45,-84 1494.45,-80.5 1484.45,-77 1484.45,-84"/>
</g>
<!-- 2529514550800*&#45;&gt;2529514550800 -->
<g id="edge12" class="edge">
<title>2529514550800*&#45;&gt;2529514550800</title>
<path fill="none" stroke="black" d="M1233.22,-74.67C1240.38,-74.99 1248.61,-75.36 1257.37,-75.75"/>
<polygon fill="black" stroke="black" points="1257.07,-79.24 1267.21,-76.19 1257.38,-72.25 1257.07,-79.24"/>
</g>
<!-- 2529514548784 -->
<g id="node33" class="node">
<title>2529514548784</title>
<polygon fill="none" stroke="black" points="956.25,-354.5 956.25,-390.5 1138.5,-390.5 1138.5,-354.5 956.25,-354.5"/>
<text text-anchor="middle" x="966.12" y="-367.2" font-family="Times New Roman,serif" font-size="14.00"> </text>
<polyline fill="none" stroke="black" points="976,-354.75 976,-390.5"/>
<text text-anchor="middle" x="1016.25" y="-367.2" font-family="Times New Roman,serif" font-size="14.00">data 0.0000</text>
<polyline fill="none" stroke="black" points="1056.5,-354.75 1056.5,-390.5"/>
<text text-anchor="middle" x="1097.5" y="-367.2" font-family="Times New Roman,serif" font-size="14.00">grad 1.0000</text>
</g>
<!-- 2529514548784&#45;&gt;2529514548832+ -->
<g id="edge25" class="edge">
<title>2529514548784&#45;&gt;2529514548832+</title>
<path fill="none" stroke="black" d="M1117.49,-354.05C1126.14,-351.37 1134.82,-348.5 1143,-345.5 1152.99,-341.84 1163.63,-337.29 1173.22,-332.93"/>
<polygon fill="black" stroke="black" points="1174.55,-336.17 1182.14,-328.78 1171.6,-329.82 1174.55,-336.17"/>
</g>
<!-- 2529514548832 -->
<g id="node34" class="node">
<title>2529514548832</title>
<polygon fill="none" stroke="black" points="1273.5,-292.5 1273.5,-328.5 1455.75,-328.5 1455.75,-292.5 1273.5,-292.5"/>
<text text-anchor="middle" x="1283.38" y="-305.2" font-family="Times New Roman,serif" font-size="14.00"> </text>
<polyline fill="none" stroke="black" points="1293.25,-292.75 1293.25,-328.5"/>
<text text-anchor="middle" x="1333.5" y="-305.2" font-family="Times New Roman,serif" font-size="14.00">data 1.8008</text>
<polyline fill="none" stroke="black" points="1373.75,-292.75 1373.75,-328.5"/>
<text text-anchor="middle" x="1414.75" y="-305.2" font-family="Times New Roman,serif" font-size="14.00">grad 1.0000</text>
</g>
<!-- 2529514548832&#45;&gt;2529514549696+ -->
<g id="edge22" class="edge">
<title>2529514548832&#45;&gt;2529514549696+</title>
<path fill="none" stroke="black" d="M1427.58,-292.01C1438.54,-288.41 1449.79,-284.5 1460.25,-280.5 1470.19,-276.7 1480.81,-272.1 1490.4,-267.74"/>
<polygon fill="black" stroke="black" points="1491.72,-270.99 1499.33,-263.62 1488.79,-264.64 1491.72,-270.99"/>
</g>
<!-- 2529514548832+&#45;&gt;2529514548832 -->
<g id="edge13" class="edge">
<title>2529514548832+&#45;&gt;2529514548832</title>
<path fill="none" stroke="black" d="M1233.22,-316.33C1241.53,-315.96 1251.28,-315.52 1261.63,-315.06"/>
<polygon fill="black" stroke="black" points="1261.73,-318.56 1271.56,-314.61 1261.42,-311.56 1261.73,-318.56"/>
</g>
<!-- 2529514550992 -->
<g id="node36" class="node">
<title>2529514550992</title>
<polygon fill="none" stroke="black" points="1271.25,-7.5 1271.25,-43.5 1458,-43.5 1458,-7.5 1271.25,-7.5"/>
<text text-anchor="middle" x="1281.12" y="-20.2" font-family="Times New Roman,serif" font-size="14.00"> </text>
<polyline fill="none" stroke="black" points="1291,-7.75 1291,-43.5"/>
<text text-anchor="middle" x="1331.25" y="-20.2" font-family="Times New Roman,serif" font-size="14.00">data 0.0042</text>
<polyline fill="none" stroke="black" points="1371.5,-7.75 1371.5,-43.5"/>
<text text-anchor="middle" x="1414.75" y="-20.2" font-family="Times New Roman,serif" font-size="14.00">grad &#45;1.9916</text>
</g>
<!-- 2529514550992&#45;&gt;2529514551040+ -->
<g id="edge27" class="edge">
<title>2529514550992&#45;&gt;2529514551040+</title>
<path fill="none" stroke="black" d="M1431.89,-43.98C1441.46,-46.97 1451.15,-50.19 1460.25,-53.5 1470.11,-57.09 1480.64,-61.46 1490.17,-65.64"/>
<polygon fill="black" stroke="black" points="1488.48,-68.71 1499.04,-69.59 1491.33,-62.32 1488.48,-68.71"/>
</g>
<!-- 2529514551040 -->
<g id="node37" class="node">
<title>2529514551040</title>
<polygon fill="none" stroke="black" points="1586.25,-69.5 1586.25,-105.5 1777.5,-105.5 1777.5,-69.5 1586.25,-69.5"/>
<text text-anchor="middle" x="1596.12" y="-82.2" font-family="Times New Roman,serif" font-size="14.00"> </text>
<polyline fill="none" stroke="black" points="1606,-69.75 1606,-105.5"/>
<text text-anchor="middle" x="1648.5" y="-82.2" font-family="Times New Roman,serif" font-size="14.00">data &#45;0.9958</text>
<polyline fill="none" stroke="black" points="1691,-69.75 1691,-105.5"/>
<text text-anchor="middle" x="1734.25" y="-82.2" font-family="Times New Roman,serif" font-size="14.00">grad &#45;1.9916</text>
</g>
<!-- 2529514551232**2 -->
<g id="node44" class="node">
<title>2529514551232**2</title>
<ellipse fill="none" stroke="black" cx="1840.5" cy="-101.5" rx="27" ry="18"/>
<text text-anchor="middle" x="1840.5" y="-96.08" font-family="Times New Roman,serif" font-size="14.00">**2</text>
</g>
<!-- 2529514551040&#45;&gt;2529514551232**2 -->
<g id="edge44" class="edge">
<title>2529514551040&#45;&gt;2529514551232**2</title>
<path fill="none" stroke="black" d="M1777.6,-95.97C1786.22,-96.74 1794.57,-97.48 1802.19,-98.17"/>
<polygon fill="black" stroke="black" points="1801.74,-101.64 1812.01,-99.04 1802.36,-94.67 1801.74,-101.64"/>
</g>
<!-- 2529514551040+&#45;&gt;2529514551040 -->
<g id="edge14" class="edge">
<title>2529514551040+&#45;&gt;2529514551040</title>
<path fill="none" stroke="black" d="M1550.47,-81.67C1557.63,-81.99 1565.86,-82.36 1574.62,-82.75"/>
<polygon fill="black" stroke="black" points="1574.32,-86.24 1584.46,-83.19 1574.63,-79.25 1574.32,-86.24"/>
</g>
<!-- 2529514549024 -->
<g id="node39" class="node">
<title>2529514549024</title>
<polygon fill="none" stroke="black" points="317.25,-177.5 317.25,-213.5 508.5,-213.5 508.5,-177.5 317.25,-177.5"/>
<text text-anchor="middle" x="327.12" y="-190.2" font-family="Times New Roman,serif" font-size="14.00"> </text>
<polyline fill="none" stroke="black" points="337,-177.75 337,-213.5"/>
<text text-anchor="middle" x="379.5" y="-190.2" font-family="Times New Roman,serif" font-size="14.00">data &#45;1.0000</text>
<polyline fill="none" stroke="black" points="422,-177.75 422,-213.5"/>
<text text-anchor="middle" x="465.25" y="-190.2" font-family="Times New Roman,serif" font-size="14.00">grad &#45;0.6771</text>
</g>
<!-- 2529514549024&#45;&gt;2529514549072* -->
<g id="edge28" class="edge">
<title>2529514549024&#45;&gt;2529514549072*</title>
<path fill="none" stroke="black" d="M484.4,-213.96C502,-218.57 520.13,-223.31 535.18,-227.26"/>
<polygon fill="black" stroke="black" points="534.01,-230.57 544.57,-229.71 535.79,-223.79 534.01,-230.57"/>
</g>
<!-- 2529514549072 -->
<g id="node40" class="node">
<title>2529514549072</title>
<polygon fill="none" stroke="black" points="639,-218.5 639,-254.5 821.25,-254.5 821.25,-218.5 639,-218.5"/>
<text text-anchor="middle" x="648.88" y="-231.2" font-family="Times New Roman,serif" font-size="14.00"> </text>
<polyline fill="none" stroke="black" points="658.75,-218.75 658.75,-254.5"/>
<text text-anchor="middle" x="699" y="-231.2" font-family="Times New Roman,serif" font-size="14.00">data 1.0000</text>
<polyline fill="none" stroke="black" points="739.25,-218.75 739.25,-254.5"/>
<text text-anchor="middle" x="780.25" y="-231.2" font-family="Times New Roman,serif" font-size="14.00">grad 0.6771</text>
</g>
<!-- 2529514549072&#45;&gt;2529514549312+ -->
<g id="edge20" class="edge">
<title>2529514549072&#45;&gt;2529514549312+</title>
<path fill="none" stroke="black" d="M821.33,-245.71C831.43,-246.75 841.25,-247.75 850.12,-248.66"/>
<polygon fill="black" stroke="black" points="849.74,-252.13 860.04,-249.67 850.45,-245.17 849.74,-252.13"/>
</g>
<!-- 2529514549072*&#45;&gt;2529514549072 -->
<g id="edge15" class="edge">
<title>2529514549072*&#45;&gt;2529514549072</title>
<path fill="none" stroke="black" d="M598.72,-236.5C607.03,-236.5 616.78,-236.5 627.13,-236.5"/>
<polygon fill="black" stroke="black" points="627.06,-240 637.06,-236.5 627.06,-233 627.06,-240"/>
</g>
<!-- 2529514276752 -->
<g id="node42" class="node">
<title>2529514276752</title>
<polygon fill="none" stroke="black" points="634.5,-108.5 634.5,-144.5 825.75,-144.5 825.75,-108.5 634.5,-108.5"/>
<text text-anchor="middle" x="644.38" y="-121.2" font-family="Times New Roman,serif" font-size="14.00"> </text>
<polyline fill="none" stroke="black" points="654.25,-108.75 654.25,-144.5"/>
<text text-anchor="middle" x="696.75" y="-121.2" font-family="Times New Roman,serif" font-size="14.00">data &#45;1.0000</text>
<polyline fill="none" stroke="black" points="739.25,-108.75 739.25,-144.5"/>
<text text-anchor="middle" x="782.5" y="-121.2" font-family="Times New Roman,serif" font-size="14.00">grad &#45;2.0000</text>
</g>
<!-- 2529514276752&#45;&gt;2529514549936* -->
<g id="edge33" class="edge">
<title>2529514276752&#45;&gt;2529514549936*</title>
<path fill="none" stroke="black" d="M797.39,-144.98C806.96,-147.97 816.65,-151.19 825.75,-154.5 835.61,-158.09 846.14,-162.46 855.67,-166.64"/>
<polygon fill="black" stroke="black" points="853.98,-169.71 864.54,-170.59 856.83,-163.32 853.98,-169.71"/>
</g>
<!-- 2529514551232 -->
<g id="node43" class="node">
<title>2529514551232</title>
<polygon fill="none" stroke="black" points="1903.5,-83.5 1903.5,-119.5 2085.75,-119.5 2085.75,-83.5 1903.5,-83.5"/>
<text text-anchor="middle" x="1913.38" y="-96.2" font-family="Times New Roman,serif" font-size="14.00"> </text>
<polyline fill="none" stroke="black" points="1923.25,-83.75 1923.25,-119.5"/>
<text text-anchor="middle" x="1963.5" y="-96.2" font-family="Times New Roman,serif" font-size="14.00">data 0.9916</text>
<polyline fill="none" stroke="black" points="2003.75,-83.75 2003.75,-119.5"/>
<text text-anchor="middle" x="2044.75" y="-96.2" font-family="Times New Roman,serif" font-size="14.00">grad 1.0000</text>
</g>
<!-- 2529514551232&#45;&gt;2529514551424+ -->
<g id="edge32" class="edge">
<title>2529514551232&#45;&gt;2529514551424+</title>
<path fill="none" stroke="black" d="M2085.87,-117.52C2094.71,-119.09 2103.28,-120.61 2111.09,-121.99"/>
<polygon fill="black" stroke="black" points="2110.34,-125.41 2120.8,-123.72 2111.56,-118.52 2110.34,-125.41"/>
</g>
<!-- 2529514551232**2&#45;&gt;2529514551232 -->
<g id="edge16" class="edge">
<title>2529514551232**2&#45;&gt;2529514551232</title>
<path fill="none" stroke="black" d="M1868,-101.5C1875.04,-101.5 1883.09,-101.5 1891.63,-101.5"/>
<polygon fill="black" stroke="black" points="1891.59,-105 1901.59,-101.5 1891.59,-98 1891.59,-105"/>
</g>
<!-- 2529509044192 -->
<g id="node45" class="node">
<title>2529509044192</title>
<polygon fill="none" stroke="black" points="4.5,-342.5 4.5,-378.5 186.75,-378.5 186.75,-342.5 4.5,-342.5"/>
<text text-anchor="middle" x="14.38" y="-355.2" font-family="Times New Roman,serif" font-size="14.00"> </text>
<polyline fill="none" stroke="black" points="24.25,-342.75 24.25,-378.5"/>
<text text-anchor="middle" x="64.5" y="-355.2" font-family="Times New Roman,serif" font-size="14.00">data 1.0000</text>
<polyline fill="none" stroke="black" points="104.75,-342.75 104.75,-378.5"/>
<text text-anchor="middle" x="145.75" y="-355.2" font-family="Times New Roman,serif" font-size="14.00">grad 2.6839</text>
</g>
<!-- 2529509044192&#45;&gt;2529514548160* -->
<g id="edge34" class="edge">
<title>2529509044192&#45;&gt;2529514548160*</title>
<path fill="none" stroke="black" d="M186.83,-376.05C197.23,-377.84 207.34,-379.59 216.42,-381.15"/>
<polygon fill="black" stroke="black" points="215.74,-384.58 226.19,-382.83 216.93,-377.69 215.74,-384.58"/>
</g>
</g>
</svg>
